<?xml version="1.0" encoding="UTF-8"?>
<svg id="orbit" xmlns="http://www.w3.org/2000/svg" version="1.1" viewBox="0 0 5000 5000">
  <!-- Generator: Adobe Illustrator 29.1.0, SVG Export Plug-In . SVG Version: 2.1.0 Build 142)  -->
  <defs>
    <style>
      .st0 {
        fill: #0021a5;
      }

      .st1 {
        fill: #fa4616;
      }
    </style>
  </defs>
  <path class="st0" d="M1467.92,3038.79c-34.22-118.06-52.13-246.01-51.13-381.69,5.64-769.16,615.72-1494.89,1362.66-1620.95,558.03-94.18,1034.55,173,1237.54,634.88-196.46-590.58-764.87-944.62-1438.79-830.88-841.56,142.03-1528.94,959.7-1535.29,1826.31-.77,104.52,8.44,204.97,26.64,300.58,115.76,32.07,249.46,56.17,398.37,71.74Z"/>
  <path class="st0" d="M1213.28,3368.89c251.81,454.68,757.12,708.24,1341.91,609.54,399.02-67.35,672.24-175.48,945.78-479.81-230.62,222.8-428.68,270.04-741.95,322.91-475.09,80.18-891.08-101.57-1129.53-442.39,284.45-5.79,600.27-35.79,935.82-92.42,791.38-133.57,1519.48-386.02,2010.42-670.72-445.05,181.34-982.1,334.73-1551.08,430.76-1421.19,239.86-2503.31,31.06-2416.98-466.36,27.55-158.77,170.84-327.76,399.36-492.06-439.93,229.46-729.21,486.31-770.09,721.85-53.94,310.84,337.58,510.58,976.33,558.7Z"/>
  <g>
    <polygon class="st1" points="4586.29 1753.24 4560.97 1731.73 4543.24 1703.63 4517.91 1682.12 4451.86 1739.43 4477.2 1760.93 4494.92 1789.04 4520.25 1810.55 4537.98 1838.65 4604.02 1781.34 4586.29 1753.24"/>
    <polygon class="st1" points="4344.38 1607.87 4362.1 1635.98 4428.14 1578.67 4410.41 1550.56 4385.08 1529.05 4367.36 1500.94 4342.03 1479.44 4275.98 1536.75 4301.31 1558.25 4319.04 1586.36 4344.38 1607.87"/>
    <path class="st1" d="M4517.86,1628.93l10.86-9.42c19.23,8.84,42.69,6.25,59.72-8.53,23.2-20.13,25.69-55.27,5.56-78.47-20.13-23.21-55.26-25.69-78.47-5.56-17.03,14.77-22.91,37.63-16.86,57.92l-10.85,9.41,30.05,34.63ZM4519.71,1531.78c20.54-17.83,51.64-15.63,69.46,4.92,9.67,11.15,13.45,25.41,11.59,38.97.06-11.53-3.9-23.12-12.04-32.51-17.83-20.54-48.92-22.74-69.46-4.92-9.22,8-14.92,18.91-16.52,30.52.07-13.96,6.07-27.51,16.98-36.98Z"/>
    <path class="st1" d="M4373.93,1700.86l-54.64,60.2c-4.66-3.86-11.56-3.9-16.28.19-5.26,4.56-5.82,12.52-1.26,17.77,4.56,5.26,12.51,5.82,17.77,1.26,4.72-4.1,5.66-10.94,2.48-16.11l67.3-45.6-15.37-17.72Z"/>
    <path class="st1" d="M4523.47,1647.43l-9.33-10.75-41.54-47.88-9.32-10.74c-4.8-5.54-13.23-6.13-18.76-1.33l-86.64,75.18c-5.53,4.8-6.13,13.23-1.33,18.76l60.2,69.37c4.8,5.53,13.22,6.13,18.75,1.33l86.64-75.18c5.53-4.8,6.13-13.23,1.33-18.76Z"/>
  </g>
  <path class="st0" d="M3392.2,3422.86c6.32,4.52,11.7,8.12,15.71,10.74,10.91,7.12,14.14,8.53,17.25,9.51,5.2,1.63,9.39,1.83,12.77,1.97,6.64.29,12.24-.63,16.68-1.67,25.33-5.89,47.14-20.42,65.42-43.58,12.15-15.4,21.79-32.62,20.66-51.82-.66-11.24-4.74-19.45-6.72-23.38-19.32-38.44-73.94-56.34-115.63-39.26-20.04,8.21-34.81,23.57-40.23,35.27-4.48,9.67-7.5,21.55-7.5,21.55-.58,2.52-1.16,5.08-1.73,7.7-.54,2.51-1.06,4.98-1.55,7.42,0,0-.32.44-.81.71-106.57,58.49-215.74,92.31-333.86,90.76-27.27-.37-54.42-3.32-81.45-8.85-11.67-2.37-26.4-5-35.26-16.31-6.61-8.46-13.48-16.56-20.6-24.32-19.83-21.59-44.09-28.44-44.09-28.44-40.11-11.62-74.63,18.6-86,28.56-5.27,4.62-9.35,8.92-12.02,11.91,18.59-3.19,34.31-4.25,46-4.55,26.79-.68,37.02,2.49,41.32,3.98,11.45,3.97,19.69,9.53,27.54,14.82,14.4,9.71,25.42,20.18,33.07,28.34-4.76-.34-11.96-1.21-20.53-3.68-9.09-2.62-11.13-4.57-25.89-11.05-22.63-9.92-34.65-12.71-38.1-13.47-3.63-.8-7.87-1.91-13.52-2.29-6.26-.43-12.79.5-32.92,2.19-17.46,1.47-33.92-.6-49.38-6.19-19.11-6.94-50.36-20.54-64.58,4.47-6.96,12.25-5.34,34.86-16.82,42.16-23.31,14.83-78.07-15.94-81.48,34.54-.72,10.78-.49,25.06-4.64,33.42-4.75,9.64-11.72,10.9-20.82,13-18,4.17-47.03-3.92-58.67,16.23-11.49,19.94,4.1,50.19-10.34,66.27-21.12,23.5-80.81-9.03-71.15,55.97,2.91,19.55,7.05,40.4-13.89,44.25-12.32,2.26-25.76,3.44-40.3,3.55-6.99.04-11.9.65-14.74,1.82-16.2,6.63-16.12,22.31-21.63,39.37-.27.83-.77,1.5-1.41,1.89-4.33,2.57-9.36,3.33-14.71,4.71-411.31,106.12-384.36,144.19,32.08,130.58,66.86-2.18,115.12-21.11,148.33-25.16,53.63-6.55,114.48-8.55,182.54-6,66.87,2.52,198.27-45.44,198.74-45.7,6.4-3.44,12.94-6.67,18.96-10.62,65.82-43.24,134.47-13.98,203.26-49.57,40.28-20.85,84-32.99,119.24-45.55,94.5-33.68,192.6-108.76,257.24-180.87,15.37-17.15,48.13-31.64,72.3-78.49,10.64-20.63,14.74-41.18,16.54-54.39-9.02,13.27-39.19,54.08-85.04,55.72-9.96.36-19.07-1.19-27.06-3.59-2.04,5.58-5.46,13.59-11.02,21.84-15.74,23.36-36.29,30.36-48.19,34.41-9.72,3.31-25.62,7.09-45.85,4.52-.82,3.79-2.25,9.4-4.79,15.69-14.21,35.25-44.98,47.11-62.68,53.93,0,0-31.04,11.96-73.14,7.7-2.59-.26-5.68-.62-5.68-.62-22.29-2.7-37.24-8.6-68.28-7.46-31.13,1.15-59.91,12.38-86.34,33.71-34.86,28.13-65.39,51.17-103.78,58.03-34.85,6.24-72.68-1.09-106.79-15.15-27.09-11.16-45.12-18.48-66.95-22.22-21.52-3.68-35.18-.53-39.81.38-23.76,4.66-41.35,16.58-51.71,25.08.95-8.79,3.68-23.47,12.75-35.51,0,0,7.21-9.52,18.22-14.68,62.68-29.37,120.74,16.84,184.68,28.47,43.3,7.88,81.69-8.4,116.94-37.3,18.85-15.43,38.15-30.66,58.03-40.08,31.01-14.72,62.58-18.97,94.68-12.74,54.35,10.53,101.78,20.44,146.6-21.39,4.6-4.3,7.28-9.98,8.05-17.04,1.57-14.5-8.43-30.14-17.12-39.1-.12-.11-.15-.31-.07-.45.08-.15.24-.18.36-.07,19.87,14.44,41.49,17.9,63.98,15.35,27.33-3.09,59.62-20.7,63.07-49.41,1.42-11.8-2.19-22.74-5.76-30.46ZM2900.29,3526.27c-13.77-.73-24.72-3.61-33.93-7.54-21.99-9.39-49.93-29.89-56.17-32.97-17.93-8.85-46.8-8.4-94.4,34.4,6.18,1.02,15.33,1.77,25.98-.5,22.11-4.71,28.67-7.15,41.78-12.91,6.65-2.92,16.17,9.04,22.66,11.67,10.74,4.35,20.65,2.02,29.74-6.98.86-.85,2.06-.95,3.04-.23,6.22,5.03,12.43,10.06,18.65,15.09-29.61,35.51-64.25,15.14-100.85,4.71-48.95-8.72-117.65,5.43-152.85,50.66-.47.71-1.49-.1-1.23-.98,12.35-62.23,59.98-61.02,99.35-79.89,44.25-35.22,98.71-64.48,150.01-24.44,7.12,5.61,15.99,14.73,26.61,27.35,6.9,8.2,14.25,14.45,21.9,21.26.94.83.85,1.26-.28,1.31Z"/>
  <g>
    <path class="st1" d="M1791.84,2754.03c-17.87,157.9-72.38,243.12-149.03,238.98-79.39-4.29-115.5-98.38-97.11-259.42,17.84-157.1,72.31-241.53,149.35-237.37,79,4.27,115.15,97.57,96.78,257.82ZM1718.65,2742.93c7.55-74.26-5.74-113.1-36.4-114.76-32.23-1.74-55.27,39.11-63.35,116.52-7.55,74.26,5.31,113.87,35.18,115.49,32.62,1.76,56.48-39.84,64.57-117.25Z"/>
    <path class="st1" d="M1938.89,2511.16c74.76.8,102.56,62.19,98.06,174.02-3.04,78.52-21.63,135.44-50.61,165.28l36.62,134.48-1.67,11.09-77.91-.84-28.47-121.7-30.69-.33-9.31,121.29-73.58-.79,38-483.58,99.55,1.07ZM1928.12,2756.21c20.46.22,35.2-20.25,36.41-69.43,1.45-31.72-9.4-50.88-31.82-51.91l-29.9-.32-9.31,121.29,34.63.37Z"/>
    <path class="st1" d="M2182.91,2508.21c58.61-1.63,85.69,47.61,84.39,130.18-.42,51.6-13.09,83.7-32.38,100.9,25.92,15.15,38.58,52.89,37.42,106.89-.38,106.36-36.13,144.66-111.66,146.76l-107,2.99,23.02-484.76,106.21-2.96ZM2162.01,2876.25c24.78-.69,35.84-16.87,36.72-47.85.22-25.4-7.11-36.31-25.2-35.8l-36.98,1.03-4.04,83.44,29.5-.82ZM2166.69,2698.35c18.88-.53,30.79-13.56,30.96-41.34.31-21.44-5.84-32.38-22.36-31.91l-31.08.87-3.09,73.1,25.57-.71Z"/>
    <path class="st1" d="M2369.64,2984.14l-73.5,4,12.69-485.23,73.1-3.98-12.3,485.21Z"/>
    <path class="st1" d="M2546.22,2620.81l-1.83,350.94-73,5.88,1.43-350.91-70.65,5.69.79-134.49,215.08-17.31-.79,134.49-71.04,5.72Z"/>
    <path class="st1" d="M2687.99,2885.83l-10.25,73.75-78.29,8.95,75.29-495.09,99.82-11.41,96.17,475.5-76.33,8.72-13.24-71.06-93.17,10.65ZM2736.79,2637.01c-4.59-24.2-6.46-35.95-8.47-49.28l-.39.05c-.97,15.26-3.23,33.87-6.12,54.13l-15.96,115.07,52.06-5.95-21.13-114.02Z"/>
    <path class="st1" d="M3073.87,2906.84l-175.47,26.54-24.63-484.66,72.53-10.97,17.78,349.59,102.55-15.51,7.24,135.01Z"/>
    <path class="st1" d="M3415.04,2786.82c-40.22,55.63-72.69,77.47-110.25,85.01-72.81,14.62-123.92-69.43-139.23-201.78-21.23-164.21,12.53-279.81,91.15-295.6,30.59-6.14,72.36-.02,110.18,23.83l-5.49,109.93c-34.27-9.24-59.54-12.23-82.39-7.64-36.02,7.23-51.38,70.77-41.27,150.96,7.47,63.79,28.74,96.6,55.85,91.16,18.59-3.73,30.47-6.92,49.76-23.69l-3.32-38.03-52.67,10.57-9.61-106.89,116.18-23.33,21.11,225.5Z"/>
    <path class="st1" d="M3519.41,2744.68l-2.74,74.57-76.89,18.76,24.79-501.42,98.03-23.91,143.6,460.34-74.96,18.29-20.33-68.94-91.5,22.32ZM3542.76,2491.3c-7.01-23.47-10.05-34.91-13.39-47.89l-.39.09c.57,15.29.22,34.06-.61,54.56l-4.23,116.35,51.13-12.47-32.51-110.63Z"/>
    <path class="st1" d="M3773.65,2393.05l52.49,346.01-70.99,19.87-52.88-345.9-68.7,19.23-20.03-132.62,209.17-58.54,20.03,132.62-69.09,19.34Z"/>
    <path class="st1" d="M4108.61,2403.01c28.74,155.88,1.78,256.2-71.95,279.92-76.38,24.57-137.76-51.46-166.9-210.51-28.54-155.12-1.39-254.68,72.72-278.52,76-24.45,137.18,50.82,166.13,209.11ZM4036.13,2418.89c-14.32-73-38.13-104.98-67.62-95.49-31.01,9.97-41,56.95-26.27,133.13,14.32,73,37.95,105.86,66.69,96.61,31.39-10.09,41.94-58.08,27.21-134.25Z"/>
    <path class="st1" d="M4177.87,2120.4c71.03-26.07,115.02,22.09,142.92,129.6,19.71,75.44,18.48,136.02-.38,174.68l73.37,114.21,1.61,11.1-74.01,27.17-61.97-105.03-29.16,10.7,26.08,118.2-69.9,25.66-103.13-471.58,94.58-34.71ZM4238.18,2356.33c19.44-7.13,27.5-31.81,14.5-78.81-7.75-30.56-23.54-44.81-45.07-37.74l-28.41,10.43,26.08,118.2,32.9-12.07Z"/>
    <path class="st1" d="M4519.11,2135.47c-48.72-7.82-74.93-4.63-91.55,2.22-15.87,6.54-19.69,16.57-15.26,32.51,7.99,25.46,15.38,19.88,68.53,28.41,55.12,9.41,82.07,38.9,104.57,115.89,24.96,84.43,5.39,163.54-54.42,188.19-33.59,13.85-82.69,6.18-128.95-17.04l-5.89-114.28c45.65,20.09,79.61,23.85,100.65,15.17,15.14-6.24,21.41-18.98,16-35.35-5.29-17.27-16.48-21.96-64.84-29.93-60.17-10.72-83.54-35.75-106.78-114.97-25.7-86.66-1.08-156.85,51.34-178.46,34.33-14.15,61.4-16.01,114.68-3.29l11.92,110.95Z"/>
  </g>
</svg>